# xmcd CD database file
#
# Track frame offsets:
#	150
#	32633
#	60186
#	86606
#	114395
#	137141
#	156371
#	174585
#	192685
#	211738
#	233208
#
# Disc length: 3562 seconds
#
# Revision: 0
# Processed by: cddbd v1.5.2PL0 Copyright (c) Steve Scherf et al.
# Submitted via: CDex 1.70beta2
#
DISCID=910de80b
DTITLE=Monokel - Live im Kesselhaus 27.12.2016
DYEAR=2016
DGENRE=Blues
TTITLE0=ahaaha
TTITLE1=kindertraum
TTITLE2=das monster vom schilkinsee
TTITLE3=nie wie vater
TTITLE4=rettungsboot
TTITLE5=tut mir leid
TTITLE6=boogiemobil
TTITLE7=emil
TTITLE8=40 jahre
TTITLE9=bye bye luebben city
TTITLE10=wie die grossen
EXTD=YEAR: 2016
EXTT0=
EXTT1=
EXTT2=
EXTT3=
EXTT4=
EXTT5=
EXTT6=
EXTT7=
EXTT8=
EXTT9=
EXTT10=
PLAYORDER=
